<svg width="0" height="0" class="hidden">
  <symbol xmlns="http://www.w3.org/2000/svg" id="envelope" viewBox="0 0 16 16">
  <path d="M2 2A2 2 0 0 0 .05 3.555L8 8.414l7.95-4.859A2 2 0 0 0 14 2zm-2 9.8V4.698l5.803 3.546zm6.761-2.97-6.57 4.026A2 2 0 0 0 2 14h6.256A4.5 4.5 0 0 1 8 12.5a4.49 4.49 0 0 1 1.606-3.446l-.367-.225L8 9.586zM16 9.671V4.697l-5.803 3.546.338.208A4.5 4.5 0 0 1 12.5 8c1.414 0 2.675.652 3.5 1.671"/>
  <path d="M15.834 12.244c0 1.168-.577 2.025-1.587 2.025-.503 0-1.002-.228-1.12-.648h-.043c-.118.416-.543.643-1.015.643-.77 0-1.259-.542-1.259-1.434v-.529c0-.844.481-1.4 1.26-1.4.585 0 .87.333.953.63h.03v-.568h.905v2.19c0 .272.18.42.411.42.315 0 .639-.415.639-1.39v-.118c0-1.277-.95-2.326-2.484-2.326h-.04c-1.582 0-2.64 1.067-2.64 2.724v.157c0 1.867 1.237 2.654 2.57 2.654h.045c.507 0 .935-.07 1.18-.18v.731c-.219.1-.643.175-1.237.175h-.044C10.438 16 9 14.82 9 12.646v-.214C9 10.36 10.421 9 12.485 9h.035c2.12 0 3.314 1.43 3.314 3.034zm-4.04.21v.227c0 .586.227.8.581.8.31 0 .564-.17.564-.743v-.367c0-.516-.275-.708-.572-.708-.346 0-.573.245-.573.791"/>
  </symbol>
  <symbol xmlns="http://www.w3.org/2000/svg" viewBox="0 0 16 16" id="bell">
  <path d="M8 16a2 2 0 0 0 2-2H6a2 2 0 0 0 2 2m.995-14.901a1 1 0 1 0-1.99 0A5 5 0 0 0 3 6c0 1.098-.5 6-2 7h14c-1.5-1-2-5.902-2-7 0-2.42-1.72-4.44-4.005-4.901"/>
  </symbol>
  <symbol xmlns="http://www.w3.org/2000/svg" viewBox="0 0 16 16" id="9">
    <path d="M16 8A8 8 0 1 1 0 8a8 8 0 0 1 16 0m-8.223 4.146c2.104 0 3.123-1.464 3.123-4.3 0-3.147-1.459-4.014-2.97-4.014-1.63 0-2.871 1.02-2.871 2.73 0 1.706 1.171 2.667 2.566 2.667 1.06 0 1.7-.557 1.934-1.184h.076c.047 1.67-.475 3.023-1.834 3.023-.71 0-1.149-.363-1.248-.72H5.258c.094.908.926 1.798 2.52 1.798Zm.118-3.972c.808 0 1.535-.528 1.535-1.594s-.668-1.676-1.56-1.676c-.838 0-1.517.616-1.517 1.659 0 1.072.708 1.61 1.54 1.61Z"></path>
  </symbol>
  <symbol xmlns="http://www.w3.org/2000/svg" viewBox="0 0 16 16" id="bus">
    <path d="M16 7a1 1 0 0 1-1 1v3.5c0 .818-.393 1.544-1 2v2a.5.5 0 0 1-.5.5h-2a.5.5 0 0 1-.5-.5V14H5v1.5a.5.5 0 0 1-.5.5h-2a.5.5 0 0 1-.5-.5v-2a2.5 2.5 0 0 1-1-2V8a1 1 0 0 1-1-1V5a1 1 0 0 1 1-1V2.64C1 1.452 1.845.408 3.064.268A44 44 0 0 1 8 0c2.1 0 3.792.136 4.936.268C14.155.408 15 1.452 15 2.64V4a1 1 0 0 1 1 1zM3.552 3.22A43 43 0 0 1 8 3c1.837 0 3.353.107 4.448.22a.5.5 0 0 0 .104-.994A44 44 0 0 0 8 2c-1.876 0-3.426.109-4.552.226a.5.5 0 1 0 .104.994M8 4c-1.876 0-3.426.109-4.552.226A.5.5 0 0 0 3 4.723v3.554a.5.5 0 0 0 .448.497C4.574 8.891 6.124 9 8 9s3.426-.109 4.552-.226A.5.5 0 0 0 13 8.277V4.723a.5.5 0 0 0-.448-.497A44 44 0 0 0 8 4m-3 7a1 1 0 1 0-2 0 1 1 0 0 0 2 0m8 0a1 1 0 1 0-2 0 1 1 0 0 0 2 0m-7 0a1 1 0 0 0 1 1h2a1 1 0 1 0 0-2H7a1 1 0 0 0-1 1"></path>
  </symbol>
  <symbol xmlns="http://www.w3.org/2000/svg" viewBox="0 0 16 16" id="megaphone">
    <path d="M13 2.5a1.5 1.5 0 0 1 3 0v11a1.5 1.5 0 0 1-3 0zm-1 .724c-2.067.95-4.539 1.481-7 1.656v6.237a25 25 0 0 1 1.088.085c2.053.204 4.038.668 5.912 1.56zm-8 7.841V4.934c-.68.027-1.399.043-2.008.053A2.02 2.02 0 0 0 0 7v2c0 1.106.896 1.996 1.994 2.009l.496.008a64 64 0 0 1 1.51.048m1.39 1.081q.428.032.85.078l.253 1.69a1 1 0 0 1-.983 1.187h-.548a1 1 0 0 1-.916-.599l-1.314-2.48a66 66 0 0 1 1.692.064q.491.026.966.06"></path>
  </symbol>
  <symbol xmlns="http://www.w3.org/2000/svg" viewBox="0 0 16 16" id="trash">
    <path d="M11 1.5v1h3.5a.5.5 0 0 1 0 1h-.538l-.853 10.66A2 2 0 0 1 11.115 16h-6.23a2 2 0 0 1-1.994-1.84L2.038 3.5H1.5a.5.5 0 0 1 0-1H5v-1A1.5 1.5 0 0 1 6.5 0h3A1.5 1.5 0 0 1 11 1.5m-5 0v1h4v-1a.5.5 0 0 0-.5-.5h-3a.5.5 0 0 0-.5.5M4.5 5.029l.5 8.5a.5.5 0 1 0 .998-.06l-.5-8.5a.5.5 0 1 0-.998.06m6.53-.528a.5.5 0 0 0-.528.47l-.5 8.5a.5.5 0 0 0 .998.058l.5-8.5a.5.5 0 0 0-.47-.528M8 4.5a.5.5 0 0 0-.5.5v8.5a.5.5 0 0 0 1 0V5a.5.5 0 0 0-.5-.5"></path>
  </symbol>
  <symbol xmlns="http://www.w3.org/2000/svg" viewBox="0 0 16 16" id="1">
    <path d="M16 8A8 8 0 1 1 0 8a8 8 0 0 1 16 0M9.283 4.002H7.971L6.072 5.385v1.271l1.834-1.318h.065V12h1.312z"></path>
  </symbol>
  <symbol xmlns="http://www.w3.org/2000/svg" viewBox="0 0 16 16" id="2">
    <path d="M16 8A8 8 0 1 1 0 8a8 8 0 0 1 16 0M6.646 6.24c0-.691.493-1.306 1.336-1.306.756 0 1.313.492 1.313 1.236 0 .697-.469 1.23-.902 1.705l-2.971 3.293V12h5.344v-1.107H7.268v-.077l1.974-2.22.096-.107c.688-.763 1.287-1.428 1.287-2.43 0-1.266-1.031-2.215-2.613-2.215-1.758 0-2.637 1.19-2.637 2.402v.065h1.271v-.07Z"></path>
  </symbol>
  <symbol xmlns="http://www.w3.org/2000/svg" viewBox="0 0 16 16" id="3">
    <path d="M16 8A8 8 0 1 1 0 8a8 8 0 0 1 16 0m-8.082.414c.92 0 1.535.54 1.541 1.318.012.791-.615 1.36-1.588 1.354-.861-.006-1.482-.469-1.54-1.066H5.104c.047 1.177 1.05 2.144 2.754 2.144 1.653 0 2.954-.937 2.93-2.396-.023-1.278-1.031-1.846-1.734-1.916v-.07c.597-.1 1.505-.739 1.482-1.876-.03-1.177-1.043-2.074-2.637-2.062-1.675.006-2.59.984-2.625 2.12h1.248c.036-.556.557-1.054 1.348-1.054.785 0 1.348.486 1.348 1.195.006.715-.563 1.237-1.342 1.237h-.838v1.072h.879Z"></path>
  </symbol>
  <symbol xmlns="http://www.w3.org/2000/svg" viewBox="0 0 16 16" id="4">
    <path d="M16 8A8 8 0 1 1 0 8a8 8 0 0 1 16 0M7.519 5.057c-.886 1.418-1.772 2.838-2.542 4.265v1.12H8.85V12h1.26v-1.559h1.007V9.334H10.11V4.002H8.176zM6.225 9.281v.053H8.85V5.063h-.065c-.867 1.33-1.787 2.806-2.56 4.218"></path>
  </symbol>
  <symbol xmlns="http://www.w3.org/2000/svg" viewBox="0 0 16 16" id="5">
    <path d="M16 8A8 8 0 1 1 0 8a8 8 0 0 1 16 0m-8.006 4.158c1.74 0 2.924-1.119 2.924-2.806 0-1.641-1.178-2.584-2.56-2.584-.897 0-1.442.421-1.612.68h-.064l.193-2.344h3.621V4.002H5.791L5.445 8.63h1.149c.193-.358.668-.809 1.435-.809.85 0 1.582.604 1.582 1.57 0 1.085-.779 1.682-1.57 1.682-.697 0-1.389-.31-1.53-1.031H5.276c.065 1.213 1.149 2.115 2.72 2.115Z"></path>
  </symbol>
  <symbol xmlns="http://www.w3.org/2000/svg" viewBox="0 0 16 16" id="6">
    <path d="M16 8A8 8 0 1 1 0 8a8 8 0 0 1 16 0M8.21 3.855c-1.868 0-3.116 1.395-3.116 4.407 0 1.183.228 2.039.597 2.642.569.926 1.477 1.254 2.409 1.254 1.629 0 2.847-1.013 2.847-2.783 0-1.676-1.254-2.555-2.508-2.555-1.125 0-1.752.61-1.98 1.155h-.082c-.012-1.946.727-3.036 1.805-3.036.802 0 1.213.457 1.312.815h1.29c-.06-.908-.962-1.899-2.573-1.899Zm-.099 4.008c-.92 0-1.564.65-1.564 1.576 0 1.032.703 1.635 1.558 1.635.868 0 1.553-.533 1.553-1.629 0-1.06-.744-1.582-1.547-1.582"></path>
  </symbol>
  <symbol xmlns="http://www.w3.org/2000/svg" viewBox="0 0 16 16" id="7">
    <path d="M16 8A8 8 0 1 1 0 8a8 8 0 0 1 16 0M5.37 5.11h3.972v.07L6.025 12H7.42l3.258-6.85V4.002H5.369v1.107Z"></path>
  </symbol>
  <symbol xmlns="http://www.w3.org/2000/svg" viewBox="0 0 16 16" id="8">
    <path d="M16 8A8 8 0 1 1 0 8a8 8 0 0 1 16 0m-5.03 1.803c0-1.248-.943-1.84-1.646-1.992v-.065c.598-.187 1.336-.72 1.336-1.781 0-1.225-1.084-2.121-2.654-2.121s-2.66.896-2.66 2.12c0 1.044.709 1.589 1.33 1.782v.065c-.697.152-1.647.732-1.647 2.003 0 1.39 1.19 2.344 2.953 2.344 1.77 0 2.989-.96 2.989-2.355Zm-4.347-3.71c0 .739.586 1.255 1.383 1.255s1.377-.516 1.377-1.254c0-.733-.58-1.23-1.377-1.23s-1.383.497-1.383 1.23Zm-.281 3.645c0 .838.72 1.412 1.664 1.412.943 0 1.658-.574 1.658-1.412 0-.843-.715-1.424-1.658-1.424-.944 0-1.664.58-1.664 1.424"></path>
  </symbol>
  <symbol xmlns="http://www.w3.org/2000/svg" id="arrow-left" class="bi bi-arrow-left-short" viewBox="0 0 16 16">
  <path fill-rule="evenodd" d="M12 8a.5.5 0 0 1-.5.5H5.707l2.147 2.146a.5.5 0 0 1-.708.708l-3-3a.5.5 0 0 1 0-.708l3-3a.5.5 0 1 1 .708.708L5.707 7.5H11.5a.5.5 0 0 1 .5.5"/>
</symbol>
<symbol xmlns="http://www.w3.org/2000/svg" id="download" class="bi bi-file-earmark-arrow-down-fill" viewBox="0 0 16 16">
  <path d="M9.293 0H4a2 2 0 0 0-2 2v12a2 2 0 0 0 2 2h8a2 2 0 0 0 2-2V4.707A1 1 0 0 0 13.707 4L10 .293A1 1 0 0 0 9.293 0M9.5 3.5v-2l3 3h-2a1 1 0 0 1-1-1m-1 4v3.793l1.146-1.147a.5.5 0 0 1 .708.708l-2 2a.5.5 0 0 1-.708 0l-2-2a.5.5 0 0 1 .708-.708L7.5 11.293V7.5a.5.5 0 0 1 1 0"/>
</symbol>
<symbol id="help" xmlns="http://www.w3.org/2000/svg" xmlns:xlink="http://www.w3.org/1999/xlink"
	 viewBox="0 0 297.001 297.001" xml:space="preserve">
<g>
	<path d="M294.257,188.838l-36.441-36.44c-7.229-7.23-20.392-12.681-30.615-12.681h-95.564c-12.916,0-23.423,10.507-23.423,23.422
		v2.811c0,12.915,10.507,23.423,23.423,23.423h25.163l-4.986,4.986c-3.404,3.405-11.131,5.976-15.9,5.3l-80.388-11.484
		c-10.576-1.51-23.298,2.099-29.592,8.393c-3.91,3.91-5.582,9.12-4.585,14.291c1.169,6.071,5.801,11.251,12.707,14.211
		l82.378,35.305c9.02,3.866,22.998,4.985,32.515,2.605l34.568-8.643c8.087-2.022,20.39-6.255,28.008-9.637l9.131-4.054
		c3.373-1.498,9.133-0.295,11.625,2.426l32.983,36.014c1.848,2.018,4.376,3.041,6.912,3.041c2.26,0,4.527-0.814,6.325-2.459
		c3.816-3.496,4.076-9.423,0.582-13.238l-32.984-36.013c-7.873-8.598-22.39-11.626-33.047-6.896l-9.13,4.054
		c-6.561,2.912-17.986,6.844-24.95,8.585l-34.568,8.643c-5.533,1.383-15.346,0.596-20.588-1.651l-81.7-35.014
		c2.868-1.129,7.082-1.937,10.762-1.412l80.388,11.484c10.579,1.518,24.246-3.047,31.799-10.6l11.044-11.043
		c7.694-7.695,6.004-14.612,4.92-17.229c-1.084-2.617-4.779-8.703-15.662-8.703h-33.729c-2.539,0-4.685-2.145-4.685-4.685v-2.811
		c0-2.538,2.145-4.684,4.685-4.684H227.2c5.229,0,13.669,3.496,17.366,7.193l36.439,36.439c3.66,3.658,9.591,3.658,13.251,0
		C297.915,198.429,297.915,192.496,294.257,188.838z"/>
	<path d="M119.223,132.534V96.466c4.391-0.776,7.729-4.602,7.729-9.217V50.71c0-5.174-4.195-9.369-9.369-9.369h-9.862
		c0.203-1.888,0.973-5.425,1.645-6.997c1.421-3.326,3.799-8.894,0.3-14.194c-2.312-3.501-6.125-5.276-11.335-5.276
		c-7.154,0-25.619,4.061-34.854,13.135c-9.235-9.074-27.699-13.135-34.854-13.135c-5.211,0-9.024,1.775-11.336,5.276
		c-3.499,5.301-1.121,10.868,0.301,14.194c0.709,1.662,1.723,5.261,1.901,6.997H9.369C4.195,41.341,0,45.536,0,50.71v36.539
		c0,4.614,3.339,8.44,7.731,9.217v36.068c0,5.174,4.194,9.369,9.369,9.369h92.754C115.027,141.904,119.223,137.708,119.223,132.534z
		 M108.214,77.881H72.846V60.079h35.368V77.881z M88.797,41.341H76.552c2.506-1.92,8.094-4.666,12.838-6.071
		C89.165,36.453,88.878,39.496,88.797,41.341z M37.563,35.27c4.938,1.463,10.523,4.178,12.82,6.071H38.021
		C38.004,39.71,37.815,36.602,37.563,35.27z M18.738,60.079h35.369v17.802H18.738V60.079z M100.484,123.165H26.469V96.618h74.016
		V123.165z"/>
</g>
</symbol>
<symbol xmlns="http://www.w3.org/2000/svg" id="bag" class="bi bi-handbag-fill" viewBox="0 0 16 16">
  <path d="M8 1a2 2 0 0 0-2 2v2H5V3a3 3 0 1 1 6 0v2h-1V3a2 2 0 0 0-2-2M5 5H3.36a1.5 1.5 0 0 0-1.483 1.277L.85 13.13A2.5 2.5 0 0 0 3.322 16h9.355a2.5 2.5 0 0 0 2.473-2.87l-1.028-6.853A1.5 1.5 0 0 0 12.64 5H11v1.5a.5.5 0 0 1-1 0V5H6v1.5a.5.5 0 0 1-1 0z"/>
</symbol>
<symbol xmlns="http://www.w3.org/2000/svg" id="info" class="bi bi-info-circle-fill" viewBox="0 0 16 16">
  <path d="M8 16A8 8 0 1 0 8 0a8 8 0 0 0 0 16m.93-9.412-1 4.705c-.07.34.029.533.304.533.194 0 .487-.07.686-.246l-.088.416c-.287.346-.92.598-1.465.598-.703 0-1.002-.422-.808-1.319l.738-3.468c.064-.293.006-.399-.287-.47l-.451-.081.082-.381 2.29-.287zM8 5.5a1 1 0 1 1 0-2 1 1 0 0 1 0 2"/>
</symbol>
<symbol xmlns="http://www.w3.org/2000/svg" id="dimensions" class="bi bi-box" viewBox="0 0 16 16">
  <path d="M8.186 1.113a.5.5 0 0 0-.372 0L1.846 3.5 8 5.961 14.154 3.5zM15 4.239l-6.5 2.6v7.922l6.5-2.6V4.24zM7.5 14.762V6.838L1 4.239v7.923zM7.443.184a1.5 1.5 0 0 1 1.114 0l7.129 2.852A.5.5 0 0 1 16 3.5v8.662a1 1 0 0 1-.629.928l-7.185 2.874a.5.5 0 0 1-.372 0L.63 13.09a1 1 0 0 1-.63-.928V3.5a.5.5 0 0 1 .314-.464z"/>
</symbol>
<symbol
aria-hidden="true"
focusable="false"
id="checkmark"
width="18"
height="14"
viewBox="0 0 18 14"
xmlns="http://www.w3.org/2000/svg">
<path
d="M6.08471 10.6237L2.29164 6.83059L1 8.11313L6.08471 13.1978L17 2.28255L15.7175 1L6.08471 10.6237Z"
fill="currentcolor"
stroke="currentcolor"/>
</symbol>
<symbol
id="cross"
aria-hidden="true"
focusable="false"
width="13"
height="13"
viewBox="0 0 13 13"
xmlns="http://www.w3.org/2000/svg">
<path
d="M11.167 0L6.5 4.667L1.833 0L0 1.833L4.667 6.5L0 11.167L1.833 13L6.5 8.333L11.167 13L13 11.167L8.333 6.5L13 1.833L11.167 0Z"
fill="currentcolor"
/>
</symbol>
</svg>