<?xml version="1.0" standalone="no"?>
<!DOCTYPE svg PUBLIC "-//W3C//DTD SVG 20010904//EN"
 "http://www.w3.org/TR/2001/REC-SVG-20010904/DTD/svg10.dtd">
<svg version="1.0" xmlns="http://www.w3.org/2000/svg"
 width="130.000000pt" height="130.000000pt" viewBox="0 0 130.000000 130.000000"
 preserveAspectRatio="xMidYMid meet">
<metadata>
Created by potrace 1.14, written by Peter Selinger 2001-2017
</metadata>
<g transform="translate(0.000000,130.000000) scale(0.100000,-0.100000)"
fill="#000000" stroke="none">
<path d="M510 1284 c-174 -37 -344 -168 -427 -329 -22 -44 -46 -98 -52 -120
-18 -62 -32 -186 -25 -220 l5 -30 107 0 c120 0 141 -8 259 -92 86 -61 136 -76
236 -71 94 5 148 26 269 105 43 29 100 56 129 63 60 15 165 8 229 -15 23 -8
46 -12 51 -9 14 8 10 141 -6 219 -38 183 -176 360 -345 444 -139 68 -284 87
-430 55z"/>
<path d="M1039 429 c-53 -8 -82 -22 -185 -89 -93 -60 -160 -84 -244 -85 -98 0
-133 11 -222 72 -128 88 -206 113 -303 99 l-45 -7 26 -52 c54 -105 71 -124
120 -131 53 -7 108 -33 190 -92 81 -58 130 -74 223 -74 92 1 155 24 271 100
91 60 150 80 234 80 61 0 61 0 87 43 15 23 34 57 44 76 23 46 18 49 -120 63
-16 2 -51 1 -76 -3z"/>
</g>
</svg>
